<?xml version="1.0" encoding="UTF-8" standalone="no"?>
<!DOCTYPE svg PUBLIC "-//W3C//DTD SVG 1.1//EN"
 "http://www.w3.org/Graphics/SVG/1.1/DTD/svg11.dtd">
<!-- Generated by graphviz version 2.38.0 (20140413.2041)
 -->
<!-- Title: %3 Pages: 1 -->
<svg width="1016pt" height="620pt"
 viewBox="0.00 0.00 1016.00 620.00" xmlns="http://www.w3.org/2000/svg" xmlns:xlink="http://www.w3.org/1999/xlink">
<g id="graph0" class="graph" transform="scale(1 1) rotate(0) translate(4 616)">
<title>%3</title>
<polygon fill="white" stroke="none" points="-4,4 -4,-616 1012,-616 1012,4 -4,4"/>
<!-- N4 -->
<g id="node1" class="node"><title>N4</title>
<polygon fill="none" stroke="black" points="344.5,-252 129.5,-252 129.5,-216 344.5,-216 344.5,-252"/>
<text text-anchor="middle" x="237" y="-230.3" font-family="Times,serif" font-size="14.00">github.com/cayleygraph/cayley/clog</text>
</g>
<!-- N7 -->
<g id="node2" class="node"><title>N7</title>
<polygon fill="none" stroke="black" points="319.5,-540 70.5,-540 70.5,-504 319.5,-504 319.5,-540"/>
<text text-anchor="middle" x="195" y="-518.3" font-family="Times,serif" font-size="14.00">github.com/cayleygraph/cayley/query/path</text>
</g>
<!-- N12 -->
<g id="node5" class="node"><title>N12</title>
<polygon fill="none" stroke="black" points="323.5,-468 66.5,-468 66.5,-432 323.5,-432 323.5,-468"/>
<text text-anchor="middle" x="195" y="-446.3" font-family="Times,serif" font-size="14.00">github.com/cayleygraph/cayley/query/shape</text>
</g>
<!-- N7&#45;&gt;N12 -->
<g id="edge24" class="edge"><title>N7&#45;&gt;N12</title>
<path fill="none" stroke="black" d="M195,-503.697C195,-495.983 195,-486.712 195,-478.112"/>
<polygon fill="black" stroke="black" points="198.5,-478.104 195,-468.104 191.5,-478.104 198.5,-478.104"/>
</g>
<!-- N9 -->
<g id="node10" class="node"><title>N9</title>
<polygon fill="none" stroke="black" points="650.5,-180 471.5,-180 471.5,-144 650.5,-144 650.5,-180"/>
<text text-anchor="middle" x="561" y="-158.3" font-family="Times,serif" font-size="14.00">github.com/cayleygraph/quad</text>
</g>
<!-- N7&#45;&gt;N9 -->
<g id="edge25" class="edge"><title>N7&#45;&gt;N9</title>
<path fill="none" stroke="black" d="M114.343,-503.998C90.6847,-496.047 66.0725,-484.54 47,-468 13.2054,-438.693 0,-423.732 0,-379 0,-379 0,-379 0,-305 0,-253.841 28.006,-240.348 73,-216 137.882,-180.89 338.207,-169.029 461.099,-165.028"/>
<polygon fill="black" stroke="black" points="461.389,-168.521 471.275,-164.709 461.17,-161.525 461.389,-168.521"/>
</g>
<!-- N1 -->
<g id="node12" class="node"><title>N1</title>
<polygon fill="none" stroke="black" points="647,-396 425,-396 425,-360 647,-360 647,-396"/>
<text text-anchor="middle" x="536" y="-374.3" font-family="Times,serif" font-size="14.00">github.com/cayleygraph/cayley/graph</text>
</g>
<!-- N7&#45;&gt;N1 -->
<g id="edge22" class="edge"><title>N7&#45;&gt;N1</title>
<path fill="none" stroke="black" d="M240.557,-503.958C267.308,-493.807 301.708,-480.502 332,-468 368.792,-452.816 377.525,-447.93 414,-432 438.165,-421.446 465.046,-409.763 487.411,-400.057"/>
<polygon fill="black" stroke="black" points="488.918,-403.219 496.699,-396.028 486.132,-396.797 488.918,-403.219"/>
</g>
<!-- N2 -->
<g id="node13" class="node"><title>N2</title>
<polygon fill="none" stroke="black" points="369.5,-324 104.5,-324 104.5,-288 369.5,-288 369.5,-324"/>
<text text-anchor="middle" x="237" y="-302.3" font-family="Times,serif" font-size="14.00">github.com/cayleygraph/cayley/graph/iterator</text>
</g>
<!-- N7&#45;&gt;N2 -->
<g id="edge23" class="edge"><title>N7&#45;&gt;N2</title>
<path fill="none" stroke="black" d="M104.782,-503.991C86.0198,-496.154 68.4825,-484.71 57,-468 47.9386,-454.813 49.5845,-446.178 57,-432 83.1202,-382.06 139.28,-348.062 181.969,-328.277"/>
<polygon fill="black" stroke="black" points="183.451,-331.449 191.132,-324.151 180.577,-325.066 183.451,-331.449"/>
</g>
<!-- N8 -->
<g id="node3" class="node"><title>N8</title>
<polygon fill="none" stroke="black" points="980,-468 756,-468 756,-432 980,-432 980,-468"/>
<text text-anchor="middle" x="868" y="-446.3" font-family="Times,serif" font-size="14.00">github.com/cayleygraph/cayley/writer</text>
</g>
<!-- N8&#45;&gt;N9 -->
<g id="edge6" class="edge"><title>N8&#45;&gt;N9</title>
<path fill="none" stroke="black" d="M856.068,-431.928C826.607,-390.699 746.5,-284.077 660,-216 644.747,-203.996 626.384,-193.312 609.637,-184.738"/>
<polygon fill="black" stroke="black" points="611.041,-181.527 600.53,-180.196 607.917,-187.791 611.041,-181.527"/>
</g>
<!-- N8&#45;&gt;N1 -->
<g id="edge5" class="edge"><title>N8&#45;&gt;N1</title>
<path fill="none" stroke="black" d="M787.208,-431.966C738.714,-421.741 676.908,-408.71 626.738,-398.131"/>
<polygon fill="black" stroke="black" points="627.373,-394.689 616.866,-396.05 625.929,-401.538 627.373,-394.689"/>
</g>
<!-- N10 -->
<g id="node4" class="node"><title>N10</title>
<polygon fill="none" stroke="black" points="609,-252 363,-252 363,-216 609,-216 609,-252"/>
<text text-anchor="middle" x="486" y="-230.3" font-family="Times,serif" font-size="14.00">github.com/cayleygraph/cayley/graph/refs</text>
</g>
<!-- N10&#45;&gt;N9 -->
<g id="edge1" class="edge"><title>N10&#45;&gt;N9</title>
<path fill="none" stroke="black" d="M504.539,-215.697C513.803,-207.05 525.162,-196.449 535.257,-187.027"/>
<polygon fill="black" stroke="black" points="537.751,-189.486 542.674,-180.104 532.975,-184.369 537.751,-189.486"/>
</g>
<!-- N12&#45;&gt;N4 -->
<g id="edge26" class="edge"><title>N12&#45;&gt;N4</title>
<path fill="none" stroke="black" d="M170.433,-431.95C130.567,-402.16 59.6318,-338.952 95,-288 104.658,-274.086 118.437,-263.818 133.653,-256.243"/>
<polygon fill="black" stroke="black" points="135.115,-259.423 142.758,-252.087 132.208,-253.055 135.115,-259.423"/>
</g>
<!-- N12&#45;&gt;N10 -->
<g id="edge29" class="edge"><title>N12&#45;&gt;N10</title>
<path fill="none" stroke="black" d="M221.582,-431.924C257.665,-408.501 323.858,-364.671 378,-324 406.077,-302.909 436.877,-277.264 458.374,-258.93"/>
<polygon fill="black" stroke="black" points="460.814,-261.449 466.133,-252.286 456.261,-256.132 460.814,-261.449"/>
</g>
<!-- N12&#45;&gt;N9 -->
<g id="edge30" class="edge"><title>N12&#45;&gt;N9</title>
<path fill="none" stroke="black" d="M144.58,-431.956C127.09,-423.678 108.901,-411.978 97,-396 49.1046,-331.7 45.876,-265.435 109,-216 161.985,-174.505 344.615,-164.766 460.878,-162.894"/>
<polygon fill="black" stroke="black" points="461.27,-166.389 471.218,-162.745 461.169,-159.39 461.27,-166.389"/>
</g>
<!-- N12&#45;&gt;N1 -->
<g id="edge27" class="edge"><title>N12&#45;&gt;N1</title>
<path fill="none" stroke="black" d="M277.982,-431.966C327.895,-421.72 391.537,-408.655 443.125,-398.065"/>
<polygon fill="black" stroke="black" points="443.85,-401.489 452.942,-396.05 442.442,-394.632 443.85,-401.489"/>
</g>
<!-- N12&#45;&gt;N2 -->
<g id="edge28" class="edge"><title>N12&#45;&gt;N2</title>
<path fill="none" stroke="black" d="M200.066,-431.871C207.256,-407.564 220.49,-362.819 229.01,-334.013"/>
<polygon fill="black" stroke="black" points="232.436,-334.771 231.916,-324.189 225.723,-332.786 232.436,-334.771"/>
</g>
<!-- N0 -->
<g id="node6" class="node"><title>N0</title>
<polygon fill="none" stroke="black" points="574,-612 386,-612 386,-576 574,-576 574,-612"/>
<text text-anchor="middle" x="480" y="-590.3" font-family="Times,serif" font-size="14.00">github.com/cayleygraph/cayley</text>
</g>
<!-- N0&#45;&gt;N7 -->
<g id="edge10" class="edge"><title>N0&#45;&gt;N7</title>
<path fill="none" stroke="black" d="M410.646,-575.966C369.526,-565.866 317.259,-553.028 274.48,-542.521"/>
<polygon fill="black" stroke="black" points="275.212,-539.097 264.665,-540.111 273.542,-545.895 275.212,-539.097"/>
</g>
<!-- N0&#45;&gt;N8 -->
<g id="edge11" class="edge"><title>N0&#45;&gt;N8</title>
<path fill="none" stroke="black" d="M526.802,-575.871C598.415,-549.663 734.947,-499.695 811.809,-471.565"/>
<polygon fill="black" stroke="black" points="813.147,-474.802 821.335,-468.079 810.741,-468.229 813.147,-474.802"/>
</g>
<!-- N3 -->
<g id="node7" class="node"><title>N3</title>
<polygon fill="none" stroke="black" points="737.5,-468 456.5,-468 456.5,-432 737.5,-432 737.5,-468"/>
<text text-anchor="middle" x="597" y="-446.3" font-family="Times,serif" font-size="14.00">github.com/cayleygraph/cayley/graph/memstore</text>
</g>
<!-- N0&#45;&gt;N3 -->
<g id="edge9" class="edge"><title>N0&#45;&gt;N3</title>
<path fill="none" stroke="black" d="M494.113,-575.871C514.58,-551.031 552.634,-504.846 576.285,-476.142"/>
<polygon fill="black" stroke="black" points="579.179,-478.133 582.837,-468.189 573.777,-473.681 579.179,-478.133"/>
</g>
<!-- N0&#45;&gt;N9 -->
<g id="edge12" class="edge"><title>N0&#45;&gt;N9</title>
<path fill="none" stroke="black" d="M574.091,-586.981C725.891,-574.659 1008,-539.813 1008,-451 1008,-451 1008,-451 1008,-305 1008,-232.635 792.514,-192.304 660.772,-174.409"/>
<polygon fill="black" stroke="black" points="661.027,-170.912 650.651,-173.055 660.099,-177.85 661.027,-170.912"/>
</g>
<!-- N0&#45;&gt;N1 -->
<g id="edge7" class="edge"><title>N0&#45;&gt;N1</title>
<path fill="none" stroke="black" d="M469.209,-575.812C451.365,-544.987 420.212,-479.131 447,-432 454.365,-419.043 466.288,-408.92 479.047,-401.155"/>
<polygon fill="black" stroke="black" points="480.96,-404.096 487.968,-396.15 477.534,-397.991 480.96,-404.096"/>
</g>
<!-- N0&#45;&gt;N2 -->
<g id="edge8" class="edge"><title>N0&#45;&gt;N2</title>
<path fill="none" stroke="black" d="M465.527,-575.966C424.43,-527.597 306.87,-389.234 258.346,-332.123"/>
<polygon fill="black" stroke="black" points="260.847,-329.661 251.704,-324.306 255.512,-334.193 260.847,-329.661"/>
</g>
<!-- N3&#45;&gt;N10 -->
<g id="edge20" class="edge"><title>N3&#45;&gt;N10</title>
<path fill="none" stroke="black" d="M624.8,-431.872C636.771,-422.837 649.495,-410.587 656,-396 662.516,-381.387 663.223,-374.277 656,-360 631.298,-311.175 577.549,-276.772 537.058,-256.583"/>
<polygon fill="black" stroke="black" points="538.382,-253.335 527.857,-252.123 535.329,-259.634 538.382,-253.335"/>
</g>
<!-- N3&#45;&gt;N9 -->
<g id="edge21" class="edge"><title>N3&#45;&gt;N9</title>
<path fill="none" stroke="black" d="M635.776,-431.783C650.181,-423.242 664.963,-411.402 673,-396 680.402,-381.815 675.058,-375.867 673,-360 664.485,-294.359 672.573,-270.493 635,-216 626.771,-204.066 614.938,-193.879 603.14,-185.72"/>
<polygon fill="black" stroke="black" points="604.892,-182.684 594.607,-180.141 601.062,-188.543 604.892,-182.684"/>
</g>
<!-- N3&#45;&gt;N1 -->
<g id="edge18" class="edge"><title>N3&#45;&gt;N1</title>
<path fill="none" stroke="black" d="M581.921,-431.697C574.608,-423.305 565.69,-413.07 557.665,-403.861"/>
<polygon fill="black" stroke="black" points="560.114,-401.344 550.905,-396.104 554.836,-405.943 560.114,-401.344"/>
</g>
<!-- N3&#45;&gt;N2 -->
<g id="edge19" class="edge"><title>N3&#45;&gt;N2</title>
<path fill="none" stroke="black" d="M512.651,-431.994C481.192,-423.698 445.886,-411.977 416,-396 394.019,-384.249 394.451,-372.693 373,-360 350.957,-346.957 325.12,-335.951 301.921,-327.407"/>
<polygon fill="black" stroke="black" points="303.093,-324.11 292.499,-324.017 300.723,-330.696 303.093,-324.11"/>
</g>
<!-- N5 -->
<g id="node8" class="node"><title>N5</title>
<polygon fill="none" stroke="black" points="430.5,-108 183.5,-108 183.5,-72 430.5,-72 430.5,-108"/>
<text text-anchor="middle" x="307" y="-86.3" font-family="Times,serif" font-size="14.00">github.com/cayleygraph/quad/voc/schema</text>
</g>
<!-- N11 -->
<g id="node11" class="node"><title>N11</title>
<polygon fill="none" stroke="black" points="662,-36 460,-36 460,-0 662,-0 662,-36"/>
<text text-anchor="middle" x="561" y="-14.3" font-family="Times,serif" font-size="14.00">github.com/cayleygraph/quad/voc</text>
</g>
<!-- N5&#45;&gt;N11 -->
<g id="edge16" class="edge"><title>N5&#45;&gt;N11</title>
<path fill="none" stroke="black" d="M368.811,-71.9656C405.072,-61.9724 451.06,-49.2984 488.959,-38.8539"/>
<polygon fill="black" stroke="black" points="490.202,-42.1419 498.912,-36.1108 488.342,-35.3935 490.202,-42.1419"/>
</g>
<!-- N6 -->
<g id="node9" class="node"><title>N6</title>
<polygon fill="none" stroke="black" points="673,-108 449,-108 449,-72 673,-72 673,-108"/>
<text text-anchor="middle" x="561" y="-86.3" font-family="Times,serif" font-size="14.00">github.com/cayleygraph/quad/voc/xsd</text>
</g>
<!-- N6&#45;&gt;N11 -->
<g id="edge17" class="edge"><title>N6&#45;&gt;N11</title>
<path fill="none" stroke="black" d="M561,-71.6966C561,-63.9827 561,-54.7125 561,-46.1124"/>
<polygon fill="black" stroke="black" points="564.5,-46.1043 561,-36.1043 557.5,-46.1044 564.5,-46.1043"/>
</g>
<!-- N9&#45;&gt;N5 -->
<g id="edge3" class="edge"><title>N9&#45;&gt;N5</title>
<path fill="none" stroke="black" d="M499.189,-143.966C462.928,-133.972 416.94,-121.298 379.041,-110.854"/>
<polygon fill="black" stroke="black" points="379.658,-107.394 369.088,-108.111 377.798,-114.142 379.658,-107.394"/>
</g>
<!-- N9&#45;&gt;N6 -->
<g id="edge4" class="edge"><title>N9&#45;&gt;N6</title>
<path fill="none" stroke="black" d="M561,-143.697C561,-135.983 561,-126.712 561,-118.112"/>
<polygon fill="black" stroke="black" points="564.5,-118.104 561,-108.104 557.5,-118.104 564.5,-118.104"/>
</g>
<!-- N9&#45;&gt;N11 -->
<g id="edge2" class="edge"><title>N9&#45;&gt;N11</title>
<path fill="none" stroke="black" d="M635.616,-143.902C653.812,-136.039 671.145,-124.605 682,-108 690.755,-94.6076 690.755,-85.3924 682,-72 673.011,-58.2493 659.579,-48.0442 644.893,-40.4771"/>
<polygon fill="black" stroke="black" points="646.154,-37.2016 635.616,-36.0983 643.166,-43.5319 646.154,-37.2016"/>
</g>
<!-- N1&#45;&gt;N4 -->
<g id="edge31" class="edge"><title>N1&#45;&gt;N4</title>
<path fill="none" stroke="black" d="M508.709,-359.923C477.739,-340.95 425.367,-310.084 378,-288 352.149,-275.948 322.732,-264.545 297.48,-255.426"/>
<polygon fill="black" stroke="black" points="298.617,-252.115 288.022,-252.046 296.261,-258.707 298.617,-252.115"/>
</g>
<!-- N1&#45;&gt;N10 -->
<g id="edge33" class="edge"><title>N1&#45;&gt;N10</title>
<path fill="none" stroke="black" d="M529.969,-359.871C521.372,-335.457 505.516,-290.426 495.379,-261.635"/>
<polygon fill="black" stroke="black" points="498.675,-260.459 492.053,-252.189 492.073,-262.784 498.675,-260.459"/>
</g>
<!-- N1&#45;&gt;N9 -->
<g id="edge34" class="edge"><title>N1&#45;&gt;N9</title>
<path fill="none" stroke="black" d="M552.217,-359.668C572.219,-336.982 605.148,-295.022 618,-252 622.58,-236.669 624.391,-230.668 618,-216 613.067,-204.677 604.389,-194.682 595.271,-186.512"/>
<polygon fill="black" stroke="black" points="597.499,-183.812 587.58,-180.088 593.011,-189.185 597.499,-183.812"/>
</g>
<!-- N1&#45;&gt;N2 -->
<g id="edge32" class="edge"><title>N1&#45;&gt;N2</title>
<path fill="none" stroke="black" d="M463.239,-359.966C419.837,-349.805 364.597,-336.872 319.567,-326.33"/>
<polygon fill="black" stroke="black" points="320.363,-322.922 309.828,-324.05 318.767,-329.737 320.363,-322.922"/>
</g>
<!-- N2&#45;&gt;N4 -->
<g id="edge13" class="edge"><title>N2&#45;&gt;N4</title>
<path fill="none" stroke="black" d="M237,-287.697C237,-279.983 237,-270.712 237,-262.112"/>
<polygon fill="black" stroke="black" points="240.5,-262.104 237,-252.104 233.5,-262.104 240.5,-262.104"/>
</g>
<!-- N2&#45;&gt;N10 -->
<g id="edge14" class="edge"><title>N2&#45;&gt;N10</title>
<path fill="none" stroke="black" d="M297.594,-287.966C333.141,-277.972 378.224,-265.298 415.377,-254.854"/>
<polygon fill="black" stroke="black" points="416.455,-258.187 425.134,-252.111 414.56,-251.448 416.455,-258.187"/>
</g>
<!-- N2&#45;&gt;N9 -->
<g id="edge15" class="edge"><title>N2&#45;&gt;N9</title>
<path fill="none" stroke="black" d="M166.016,-287.924C147.978,-280.038 130.695,-268.586 120,-252 111.329,-238.553 109.383,-227.97 120,-216 142.257,-190.908 337.955,-175.442 461.063,-168.108"/>
<polygon fill="black" stroke="black" points="461.491,-171.589 471.269,-167.508 461.081,-164.601 461.491,-171.589"/>
</g>
</g>
</svg>
